HIERARCHY
ROOT Hips
{
  OFFSET 2.587 43.569 -225.511
  CHANNELS 6 Xposition Yposition Zposition Zrotation Xrotation Yrotation
  JOINT LeftUpLeg
  {
    OFFSET 6.620 -4.500 4.793
    CHANNELS 6 Xposition Yposition Zposition Zrotation Xrotation Yrotation
    JOINT LeftLeg
    {
      OFFSET 0.000 -47.918 0.000
      CHANNELS 6 Xposition Yposition Zposition Zrotation Xrotation Yrotation
      JOINT LeftFoot
      {
        OFFSET -0.000 -38.728 -0.000
        CHANNELS 6 Xposition Yposition Zposition Zrotation Xrotation Yrotation
        End Site
        {
          OFFSET 0.000 -7.797 4.502
        }
      }
    }
  }
  JOINT RightUpLeg
  {
    OFFSET -6.675 -4.327 5.116
    CHANNELS 6 Xposition Yposition Zposition Zrotation Xrotation Yrotation
    JOINT RightLeg
    {
      OFFSET 0.000 -48.031 0.000
      CHANNELS 6 Xposition Yposition Zposition Zrotation Xrotation Yrotation
      JOINT RightFoot
      {
        OFFSET -0.000 -38.814 -0.000
        CHANNELS 6 Xposition Yposition Zposition Zrotation Xrotation Yrotation
        End Site
        {
          OFFSET 0.000 -7.517 4.340
        }
      }
    }
  }
  JOINT Spine
  {
    OFFSET 0.000 4.240 -4.240
    CHANNELS 6 Xposition Yposition Zposition Zrotation Xrotation Yrotation
    JOINT LeftShoulder
    {
      OFFSET -0.000 37.537 0.000
      CHANNELS 6 Xposition Yposition Zposition Zrotation Xrotation Yrotation
      JOINT LeftArm
      {
        OFFSET 18.914 0.000 -0.000
        CHANNELS 6 Xposition Yposition Zposition Zrotation Xrotation Yrotation
        JOINT LeftForeArm
        {
          OFFSET 20.670 0.000 0.000
          CHANNELS 6 Xposition Yposition Zposition Zrotation Xrotation Yrotation
          JOINT LeftHand
          {
            OFFSET 25.373 0.000 -0.000
            CHANNELS 6 Xposition Yposition Zposition Zrotation Xrotation Yrotation
            JOINT LeftHandThumb1
            {
            OFFSET 4.970 -0.620 3.390
            CHANNELS 6 Xposition Yposition Zposition Zrotation Xrotation Yrotation
              JOINT LeftHandThumb2
              {
              OFFSET 2.150 -0.000 0.000
              CHANNELS 6 Xposition Yposition Zposition Zrotation Xrotation Yrotation
                JOINT LeftHandThumb3
                {
                OFFSET 2.200 -0.000 0.000
                CHANNELS 6 Xposition Yposition Zposition Zrotation Xrotation Yrotation
                  JOINT LeftHandThumb4
                  {
                  OFFSET 1.700 -0.000 0.000
                  CHANNELS 6 Xposition Yposition Zposition Zrotation Xrotation Yrotation
                  }
                }
              }
            }
            JOINT LeftHandIndex1
            {
            OFFSET 8.730 0.680 2.070
            CHANNELS 6 Xposition Yposition Zposition Zrotation Xrotation Yrotation
              JOINT LeftHandIndex2
              {
              OFFSET 2.670 -0.000 0.000
              CHANNELS 6 Xposition Yposition Zposition Zrotation Xrotation Yrotation
                JOINT LeftHandIndex3
                {
                OFFSET 2.130 -0.000 0.000
                CHANNELS 6 Xposition Yposition Zposition Zrotation Xrotation Yrotation
                  JOINT LeftHandIndex4
                  {
                  OFFSET 1.800 -0.000 0.000
                  CHANNELS 6 Xposition Yposition Zposition Zrotation Xrotation Yrotation
                  }
                }
              }
            }
            JOINT LeftHandMiddle1
            {
            OFFSET 9.220 0.670 0.550
            CHANNELS 6 Xposition Yposition Zposition Zrotation Xrotation Yrotation
              JOINT LeftHandMiddle2
              {
              OFFSET 2.660 -0.000 0.000
              CHANNELS 6 Xposition Yposition Zposition Zrotation Xrotation Yrotation
                JOINT LeftHandMiddle3
                {
                OFFSET 2.280 -0.000 0.000
                CHANNELS 6 Xposition Yposition Zposition Zrotation Xrotation Yrotation
                  JOINT LeftHandMiddle4
                  {
                  OFFSET 1.500 -0.000 0.000
                  CHANNELS 6 Xposition Yposition Zposition Zrotation Xrotation Yrotation
                  }
                }
              }
            }
            JOINT LeftHandRing1
            {
            OFFSET 9.250 0.670 -1.130
            CHANNELS 6 Xposition Yposition Zposition Zrotation Xrotation Yrotation
              JOINT LeftHandRing2
              {
              OFFSET 2.470 -0.000 0.000
              CHANNELS 6 Xposition Yposition Zposition Zrotation Xrotation Yrotation
                JOINT LeftHandRing3
                {
                OFFSET 2.210 -0.000 0.000
                CHANNELS 6 Xposition Yposition Zposition Zrotation Xrotation Yrotation
                  JOINT LeftHandRing4
                  {
                  OFFSET 1.800 -0.000 0.000
                  CHANNELS 6 Xposition Yposition Zposition Zrotation Xrotation Yrotation
                  }
                }
              }
            }
            JOINT LeftHandPinky1
            {
            OFFSET 9.350 0.660 -2.720
            CHANNELS 6 Xposition Yposition Zposition Zrotation Xrotation Yrotation
              JOINT LeftHandPinky2
              {
              OFFSET 1.630 -0.000 0.000
              CHANNELS 6 Xposition Yposition Zposition Zrotation Xrotation Yrotation
                JOINT LeftHandPinky3
                {
                OFFSET 1.710 -0.000 0.000
                CHANNELS 6 Xposition Yposition Zposition Zrotation Xrotation Yrotation
                  JOINT LeftHandPinky4
                  {
                  OFFSET 1.800 -0.000 0.000
                  CHANNELS 6 Xposition Yposition Zposition Zrotation Xrotation Yrotation
                  }
                }
              }
            }
          }
        }
      }
    }
    JOINT RightShoulder
    {
      OFFSET -0.000 37.537 0.000
      CHANNELS 6 Xposition Yposition Zposition Zrotation Xrotation Yrotation
      JOINT RightArm
      {
        OFFSET -19.644 0.000 -0.000
        CHANNELS 6 Xposition Yposition Zposition Zrotation Xrotation Yrotation
        JOINT RightForeArm
        {
          OFFSET -21.211 0.000 0.000
          CHANNELS 6 Xposition Yposition Zposition Zrotation Xrotation Yrotation
          JOINT RightHand
          {
            OFFSET -23.816 -0.000 -0.000
            CHANNELS 6 Xposition Yposition Zposition Zrotation Xrotation Yrotation
            JOINT RightHandThumb1
            {
            OFFSET -4.970 -0.620 3.390
            CHANNELS 6 Xposition Yposition Zposition Zrotation Xrotation Yrotation
              JOINT RightHandThumb2
              {
              OFFSET -2.150 0.000 0.000
              CHANNELS 6 Xposition Yposition Zposition Zrotation Xrotation Yrotation
                JOINT RightHandThumb3
                {
                OFFSET -2.200 0.000 0.000
                CHANNELS 6 Xposition Yposition Zposition Zrotation Xrotation Yrotation
                  JOINT RightHandThumb4
                  {
                  OFFSET -1.700 0.000 0.000
                  CHANNELS 6 Xposition Yposition Zposition Zrotation Xrotation Yrotation
                  }
                }
              }
            }
            JOINT RightHandIndex1
            {
            OFFSET -8.730 0.680 2.070
            CHANNELS 6 Xposition Yposition Zposition Zrotation Xrotation Yrotation
              JOINT RightHandIndex2
              {
              OFFSET -2.670 0.000 0.000
              CHANNELS 6 Xposition Yposition Zposition Zrotation Xrotation Yrotation
                JOINT RightHandIndex3
                {
                OFFSET -2.130 0.000 0.000
                CHANNELS 6 Xposition Yposition Zposition Zrotation Xrotation Yrotation
                  JOINT RightHandIndex4
                  {
                  OFFSET -1.800 0.000 0.000
                  CHANNELS 6 Xposition Yposition Zposition Zrotation Xrotation Yrotation
                  }
                }
              }
            }
            JOINT RightHandMiddle1
            {
            OFFSET -9.220 0.670 0.550
            CHANNELS 6 Xposition Yposition Zposition Zrotation Xrotation Yrotation
              JOINT RightHandMiddle2
              {
              OFFSET -2.660 0.000 0.000
              CHANNELS 6 Xposition Yposition Zposition Zrotation Xrotation Yrotation
                JOINT RightHandMiddle3
                {
                OFFSET -2.280 0.000 0.000
                CHANNELS 6 Xposition Yposition Zposition Zrotation Xrotation Yrotation
                  JOINT RightHandMiddle4
                  {
                  OFFSET -1.500 0.000 0.000
                  CHANNELS 6 Xposition Yposition Zposition Zrotation Xrotation Yrotation
                  }
                }
              }
            }
            JOINT RightHandRing1
            {
            OFFSET -9.250 0.670 -1.130
            CHANNELS 6 Xposition Yposition Zposition Zrotation Xrotation Yrotation
              JOINT RightHandRing2
              {
              OFFSET -2.470 0.000 0.000
              CHANNELS 6 Xposition Yposition Zposition Zrotation Xrotation Yrotation
                JOINT RightHandRing3
                {
                OFFSET -2.210 0.000 0.000
                CHANNELS 6 Xposition Yposition Zposition Zrotation Xrotation Yrotation
                  JOINT RightHandRing4
                  {
                  OFFSET -1.800 0.000 0.000
                  CHANNELS 6 Xposition Yposition Zposition Zrotation Xrotation Yrotation
                  }
                }
              }
            }
            JOINT RightHandPinky1
            {
            OFFSET -9.350 0.660 -2.720
            CHANNELS 6 Xposition Yposition Zposition Zrotation Xrotation Yrotation
              JOINT RightHandPinky2
              {
              OFFSET -1.630 0.000 0.000
              CHANNELS 6 Xposition Yposition Zposition Zrotation Xrotation Yrotation
                JOINT RightHandPinky3
                {
                OFFSET -1.710 0.000 0.000
                CHANNELS 6 Xposition Yposition Zposition Zrotation Xrotation Yrotation
                  JOINT RightHandPinky4
                  {
                  OFFSET -1.800 0.000 0.000
                  CHANNELS 6 Xposition Yposition Zposition Zrotation Xrotation Yrotation
                  }
                }
              }
            }
          }
        }
      }
    }
    JOINT Neck
    {
      OFFSET -0.000 37.537 0.000
      CHANNELS 6 Xposition Yposition Zposition Zrotation Xrotation Yrotation
      JOINT Head
      {
        OFFSET -0.000 10.589 -0.000
        CHANNELS 6 Xposition Yposition Zposition Zrotation Xrotation Yrotation
        End Site
        {
          OFFSET -0.000 0.042 -0.000
        }
      }
    }
  }
}
MOTION
Frames:	4
Frame Time:	0.0333333
2.86396 44.7376 -235.095 4.58642 60.8941 -5.77958 7.21684 -5.04684 5.13653 3.23294 -63.0734 6.12443 0 -47.8778 4.76837e-05 0.427203 19.4795 7.35808e-07 2.98023e-06 -40.3784 -7.15256e-05 6.17243 -14.4422 5.04916 -7.1465 -4.37307 5.77248 -3.26484 -61.3432 1.50531 -1.21072e-06 -47.2054 0 -0.324559 15.7722 3.32691e-07 1.86265e-07 -40.177 -4.76837e-05 -6.74832 -14.9865 -5.49039 1.49012e-06 4.38558 -4.38558 -0.0431525 -47.3478 -0.0612267 -3.72529e-06 37.5371 0 -35.6292 1.36604e-05 5.04856 18.4367 -2.98023e-06 -7.15256e-05 -12.2775 19.6113 -8.68762 20.2816 1.78814e-05 2.38419e-05 -1.45702e-05 -6.30661e-06 -106.419 22.274 1.78814e-05 1.78814e-05 -29.4754 -0.441647 11.5602 0.0062 0.0497 0.0339 0 0 0 0 0.0215 0 0 0 0 0 0.022 0 0 0 0 0 0.017 0 0 0 0 -0.0068 0.0873 0.0207 0 0 0 0 0.0267 0 0 0 0 0 0.0213 0 0 0 0 0 0.018 0 0 0 0 -0.0067 0.0922 0.0055 0 0 0 0 0.0266 0 0 0 0 0 0.0228 0 0 0 0 0 0.015 0 0 0 0 -0.0067 0.0925 -0.0113 0 0 0 0 0.0247 0 0 0 0 0 0.0221 0 0 0 0 0 0.018 0 0 0 0 -0.0066 0.0935 -0.0272 0 0 0 0 0.0163 0 0 0 0 0 0.0171 0 0 0 0 0 0.018 0 0 0 0 -3.72529e-06 37.5371 0 33.2216 -1.70755e-06 -4.57229 -20.3525 2.68221e-05 -2.38419e-05 0.186001 28.0081 3.69683 -16.7036 5.96046e-06 2.38419e-05 4.04658e-05 8.89047e-06 96.6342 -21.604 0 -1.49012e-06 10.064 0.606356 10.6117 -0.0062 0.0497 0.0339 1.61149e-43 0 0 0 0.0215 0 0 -1.61149e-43 0 0 0.022 0 0 -1.61149e-43 0 0 0.017 0 0 0 0 0.0068 0.0873 0.0207 1.61149e-43 0 0 0 0.0267 0 3.20897e-43 0 0 0 0.0213 0 4.00771e-43 0 0 0 0.018 0 0 0 0 0.0067 0.0922 0.0055 1.61149e-43 0 0 0 0.0266 0 3.20897e-43 0 0 0 0.0228 0 4.00771e-43 0 0 0 0.015 0 0 0 0 0.0067 0.0925 -0.0113 1.61149e-43 0 0 0 0.0247 0 3.20897e-43 0 0 0 0.0221 0 4.00771e-43 0 0 0 0.018 0 0 0 0 0.0066 0.0935 -0.0272 1.61149e-43 0 0 0 0.0163 0 3.20897e-43 0 0 0 0.0171 0 4.00771e-43 0 0 0 0.018 0 0 0 0 -3.72529e-06 37.5371 0 54.2578 15.2195 -20.0402 2.98023e-05 8.77624 2.38419e-05 7.68396e-06 -1.02453e-05 5.12264e-06 
2.78039 47.3557 -235.084 7.04564 58.1654 -2.71471 6.89972 -5.2532 5.43298 -6.51846 -60.1908 -3.41591 -2.98023e-06 -46.4071 2.38419e-05 0.37095 21.8805 4.60026e-07 1.49012e-06 -41.0359 0 4.88237 -12.005 3.96611 -7.4292 -4.12238 4.86103 -14.6183 -57.6909 -8.61253 1.49012e-06 -45.487 -2.38419e-05 -0.070259 18.244 2.24741e-07 3.72529e-07 -40.872 -7.15256e-05 -5.74451 -18.7551 -4.90843 -1.86265e-07 4.16207 -4.16212 0.688443 -46.4795 0.588762 -4.37722e-06 37.5371 4.76837e-05 -32.2722 1.53679e-05 1.70473 22.0861 1.78814e-05 0 -21.3616 20.9808 -6.68056 20.0952 2.38419e-05 -2.38419e-05 -1.25923e-05 6.82068e-06 -107.8 23.2328 1.19209e-05 -1.19209e-05 -28.8472 0.513172 4.15906 0.0062 0.0497 0.0339 0 0 0 0 0.0215 0 0 0 0 0 0.022 0 0 0 0 0 0.017 0 0 0 0 -0.0068 0.0873 0.0207 0 0 0 0 0.0267 0 0 0 0 0 0.0213 0 0 0 0 0 0.018 0 0 0 0 -0.0067 0.0922 0.0055 0 0 0 0 0.0266 0 0 0 0 0 0.0228 0 0 0 0 0 0.015 0 0 0 0 -0.0067 0.0925 -0.0113 0 0 0 0 0.0247 0 0 0 0 0 0.0221 0 0 0 0 0 0.018 0 0 0 0 -0.0066 0.0935 -0.0272 0 0 0 0 0.0163 0 0 0 0 0 0.0171 0 0 0 0 0 0.018 0 0 0 0 -4.37722e-06 37.5371 4.76837e-05 38.5396 8.53774e-07 -2.42385 -15.5359 -2.98023e-06 2.38419e-05 -22.3647 26.7821 -10.1696 -16.0742 -5.96046e-06 0 -8.38504e-07 6.05921e-06 105.758 -21.9949 1.78814e-05 8.9407e-06 5.42769 0.813773 18.4932 -0.0062 0.0497 0.0339 1.61149e-43 0 0 0 0.0215 0 0 -1.61149e-43 0 0 0.022 0 0 -1.61149e-43 0 0 0.017 0 0 0 0 0.0068 0.0873 0.0207 1.61149e-43 0 0 0 0.0267 0 3.20897e-43 0 0 0 0.0213 0 4.00771e-43 0 0 0 0.018 0 0 0 0 0.0067 0.0922 0.0055 1.61149e-43 0 0 0 0.0266 0 3.20897e-43 0 0 0 0.0228 0 4.00771e-43 0 0 0 0.015 0 0 0 0 0.0067 0.0925 -0.0113 1.61149e-43 0 0 0 0.0247 0 3.20897e-43 0 0 0 0.0221 0 4.00771e-43 0 0 0 0.018 0 0 0 0 0.0066 0.0935 -0.0272 1.61149e-43 0 0 0 0.0163 0 3.20897e-43 0 0 0 0.0171 0 4.00771e-43 0 0 0 0.018 0 0 0 0 -4.37722e-06 37.5371 4.76837e-05 61.3016 23.9131 -36.5177 -3.57628e-05 7.83945 2.38419e-05 6.83019e-06 -1.36604e-05 5.12264e-06 
3.72926 50.0014 -235.329 -2.85067 60.1976 5.84189 6.88063 -4.36147 5.3551 -1.74935 -64.8398 -3.51535 1.49012e-06 -44.2135 4.76837e-05 0.704847 30.3725 7.42191e-07 -1.49012e-06 -39.7283 -9.53674e-05 4.91322 -14.128 4.07831 -7.82032 -4.52793 4.94441 -13.6995 -62.2286 -11.1723 3.72529e-06 -43.5532 -2.38419e-05 0.709466 27.1247 4.79639e-07 -7.45058e-07 -39.6226 -4.76837e-05 -4.5026 -25.3842 -4.01575 1.49012e-06 3.52602 -3.52591 -1.03857 -47.6243 -0.89374 -2.98023e-06 37.537 0 -28.7376 7.68396e-06 2.66491 19.8827 -1.19209e-05 -2.38419e-05 -20.0819 24.7507 -16.4503 19.7992 -5.96046e-06 2.38419e-05 1.20885e-05 -1.23919e-05 -104.458 24.0602 2.38419e-05 0 -24.4453 1.75466 -5.35158 0.0062 0.0497 0.0339 0 0 0 0 0.0215 0 0 0 0 0 0.022 0 0 0 0 0 0.017 0 0 0 0 -0.0068 0.0873 0.0207 0 0 0 0 0.0267 0 0 0 0 0 0.0213 0 0 0 0 0 0.018 0 0 0 0 -0.0067 0.0922 0.0055 0 0 0 0 0.0266 0 0 0 0 0 0.0228 0 0 0 0 0 0.015 0 0 0 0 -0.0067 0.0925 -0.0113 0 0 0 0 0.0247 0 0 0 0 0 0.0221 0 0 0 0 0 0.018 0 0 0 0 -0.0066 0.0935 -0.0272 0 0 0 0 0.0163 0 0 0 0 0 0.0171 0 0 0 0 0 0.018 0 0 0 0 -2.98023e-06 37.537 0 41.3059 -5.97641e-06 -3.06929 -17.2653 -2.98023e-06 -2.38419e-05 -32.2809 22.4129 -17.1895 -17.9542 1.19209e-05 -4.76837e-05 -3.52586e-06 1.83729e-05 111.727 -21.6516 5.96046e-06 4.00469e-06 -1.9406 0.35232 23.7319 -0.0062 0.0497 0.0339 1.61149e-43 0 0 0 0.0215 0 0 -1.61149e-43 0 0 0.022 0 0 -1.61149e-43 0 0 0.017 0 0 0 0 0.0068 0.0873 0.0207 1.61149e-43 0 0 0 0.0267 0 3.20897e-43 0 0 0 0.0213 0 4.00771e-43 0 0 0 0.018 0 0 0 0 0.0067 0.0922 0.0055 1.61149e-43 0 0 0 0.0266 0 3.20897e-43 0 0 0 0.0228 0 4.00771e-43 0 0 0 0.015 0 0 0 0 0.0067 0.0925 -0.0113 1.61149e-43 0 0 0 0.0247 0 3.20897e-43 0 0 0 0.0221 0 4.00771e-43 0 0 0 0.018 0 0 0 0 0.0066 0.0935 -0.0272 1.61149e-43 0 0 0 0.0163 0 3.20897e-43 0 0 0 0.0171 0 4.00771e-43 0 0 0 0.018 0 0 0 0 -2.98023e-06 37.537 0 85.4573 12.5535 -69.9205 0 10.7613 1.19209e-05 1.36604e-05 -1.00318e-05 0 
4.74272 53.1094 -236.214 -5.03885 61.0276 8.29806 6.8469 -3.98107 4.93176 -4.6963 -77.3757 -8.57571 7.45058e-06 -40.6108 0 2.0447 62.9152 4.3363e-06 -2.98023e-06 -35.6146 0 5.40506 -32.626 4.95033 -8.17927 -4.79937 4.89717 -43.1344 -75.2909 -38.425 -2.98023e-06 -39.4172 0 7.26296 64.5049 7.93407e-06 4.47035e-06 -35.9198 -1.19209e-05 -4.66198 -49.4197 -4.37389 0 3.39016 -3.39017 -3.63633 -46.8426 -2.98233 -4.47035e-06 37.5371 0 -29.0743 1.45142e-05 3.38163 17.4669 2.08616e-05 2.38419e-05 -7.68071 23.2008 -29.6838 19.3482 -5.96046e-06 4.76837e-05 -1.41907e-05 -8.1762e-06 -97.4222 25.3434 5.96046e-06 0 -5.3825 0.923831 -14.6103 0.0062 0.0497 0.0339 -13.1227 0 0 0 0.0215 0 0 -13.1227 0 0 0.022 0 0 -13.1227 0 0 0.017 0 0 0 0 -0.0068 0.0873 0.0207 -13.1227 0 0 0 0.0267 0 -23.3292 0 0 0 0.0213 0 -26.2453 0 0 0 0.018 0 0 0 0 -0.0067 0.0922 0.0055 -13.1227 0 0 0 0.0266 0 -23.3292 0 0 0 0.0228 0 -26.2453 0 0 0 0.015 0 0 0 0 -0.0067 0.0925 -0.0113 -13.1227 0 0 0 0.0247 0 -23.3292 0 0 0 0.0221 0 -26.2453 0 0 0 0.018 0 0 0 0 -0.0066 0.0935 -0.0272 -13.1227 0 0 0 0.0163 0 -23.3292 0 0 0 0.0171 0 -26.2453 0 0 0 0.018 0 0 0 0 -4.47035e-06 37.5371 0 47.561 -8.53774e-07 -2.96783 -19.8997 5.21541e-06 0 -51.0697 4.55873 -14.751 -18.9182 8.9407e-06 -4.76837e-05 1.0328e-05 1.51209e-05 114.857 -24.5247 1.49012e-05 -5.96046e-06 2.59794 0.41823 25.8947 -0.0062 0.0497 0.0339 1.61149e-43 0 0 0 0.0215 0 0 -1.61149e-43 0 0 0.022 0 0 -1.61149e-43 0 0 0.017 0 0 0 0 0.0068 0.0873 0.0207 1.61149e-43 0 0 0 0.0267 0 3.20897e-43 0 0 0 0.0213 0 4.00771e-43 0 0 0 0.018 0 0 0 0 0.0067 0.0922 0.0055 1.61149e-43 0 0 0 0.0266 0 3.20897e-43 0 0 0 0.0228 0 4.00771e-43 0 0 0 0.015 0 0 0 0 0.0067 0.0925 -0.0113 1.61149e-43 0 0 0 0.0247 0 3.20897e-43 0 0 0 0.0221 0 4.00771e-43 0 0 0 0.018 0 0 0 0 0.0066 0.0935 -0.0272 1.61149e-43 0 0 0 0.0163 0 3.20897e-43 0 0 0 0.0171 0 4.00771e-43 0 0 0 0.018 0 0 0 0 -4.47035e-06 37.5371 0 94.137 8.4952 -116.087 0 12.9852 -2.38419e-05 1.19528e-05 -1.19528e-05 1.02453e-05 
